<svg width="470" height="96" viewBox="0 0 470 96" fill="none" xmlns="http://www.w3.org/2000/svg">
<path d="M207.394 85.6499C206.746 86.0101 206.152 86.1361 205.611 86.0281C205.107 85.92 204.657 85.5779 204.261 85.0016L186.216 56.6917H164.821V83.2727C164.821 84.7855 164.065 85.5419 162.552 85.5419C161.04 85.5419 160.283 84.7855 160.283 83.2727V19.4134C160.283 17.9007 161.04 17.1443 162.552 17.1443H187.837C193.852 17.1443 198.372 18.675 201.397 21.7365C204.459 24.762 205.99 29.2822 205.99 35.2972V38.5388C205.99 43.8694 204.765 48.0475 202.316 51.0729C199.903 54.0624 196.301 55.8633 191.511 56.4756L208.043 82.5164C208.907 83.849 208.691 84.8935 207.394 85.6499ZM164.821 52.1535H187.837C192.555 52.1535 195.995 51.0549 198.156 48.8579C200.353 46.6608 201.451 43.2211 201.451 38.5388V35.2972C201.451 30.5789 200.353 27.1392 198.156 24.9781C195.995 22.7811 192.555 21.6825 187.837 21.6825H164.821V52.1535Z" fill="white"/>
<path d="M255.821 85.5418C254.308 85.5418 253.552 84.7855 253.552 83.2727V51.3431V19.4134C253.552 17.9007 254.308 17.1443 255.821 17.1443H284.023C289.173 17.1443 293.045 18.4229 295.638 20.9802C298.268 23.5374 299.582 27.3373 299.582 32.3798V35.2972C299.582 41.2401 297.673 45.3101 293.856 47.5072C300.339 49.9204 303.58 55.4671 303.58 64.1473V67.497C303.58 73.4399 302.05 77.9421 298.988 81.0036C295.963 84.0291 291.442 85.5418 285.427 85.5418H255.821ZM258.09 81.0036H285.427C290.182 81.0036 293.639 79.9231 295.8 77.762C297.962 75.601 299.042 72.1793 299.042 67.497V64.1473C299.042 59.429 297.962 56.0254 295.8 53.9363C293.639 51.8113 290.182 50.7488 285.427 50.7488H258.09V81.0036ZM258.09 46.2105H284.455C287.985 46.2105 290.632 45.3641 292.397 43.6713C294.162 41.9785 295.044 39.1871 295.044 35.2972V32.3798C295.044 28.6339 294.162 25.9146 292.397 24.2218C290.668 22.5289 287.877 21.6825 284.023 21.6825H258.09V46.2105Z" fill="white"/>
<path d="M356.324 85.5419C355.675 85.5419 355.135 85.3258 354.703 84.8936C354.271 84.4613 354.055 83.9211 354.055 83.2728V19.3054C354.055 18.6571 354.271 18.1168 354.703 17.6846C355.135 17.2524 355.675 17.0363 356.324 17.0363C356.972 17.0363 357.512 17.2524 357.945 17.6846C358.377 18.1168 358.593 18.6571 358.593 19.3054V83.2728C358.593 83.9211 358.377 84.4613 357.945 84.8936C357.512 85.3258 356.972 85.5419 356.324 85.5419Z" fill="white"/>
<path d="M441.798 85.6499C441.149 85.6499 440.609 85.4338 440.177 85.0016C439.745 84.5694 439.528 84.0291 439.528 83.3808V21.5745H415.865C415.216 21.5745 414.676 21.3584 414.244 20.9262C413.812 20.494 413.596 19.9537 413.596 19.3054C413.596 18.6571 413.812 18.1168 414.244 17.6846C414.676 17.2524 415.216 17.0363 415.865 17.0363H467.73C468.379 17.0363 468.919 17.2524 469.351 17.6846C469.783 18.1168 469.999 18.6571 469.999 19.3054C469.999 19.9537 469.783 20.494 469.351 20.9262C468.919 21.3584 468.379 21.5745 467.73 21.5745H444.067V83.3808C444.067 84.0291 443.851 84.5694 443.418 85.0016C442.986 85.4338 442.446 85.6499 441.798 85.6499Z" fill="white"/>
<path d="M63.517 95.0966C89.7772 95.0966 111.065 73.8085 111.065 47.5483C111.065 21.2881 89.7772 0 63.517 0C37.2568 0 15.9688 21.2881 15.9688 47.5483C15.9688 73.8085 37.2568 95.0966 63.517 95.0966Z" fill="url(#paint0_linear_1160_67)"/>
<path d="M96.8581 9.43498C103.488 7.72909 118.157 5.61372 123.793 10.7998C127.246 13.3019 130.92 21.5133 117.991 34.3423C110.947 43.6682 85.5042 66.2781 40.0882 82.1094C31.5243 84.9526 12.3247 89.2062 4.0371 83.474C0.307689 80.4033 -3.00735 70.4406 13.5679 55.1551" stroke="white" stroke-linecap="round"/>
<path d="M11.1297 93.0677C14.2378 93.0677 16.7575 90.548 16.7575 87.4399C16.7575 84.3318 14.2378 81.8121 11.1297 81.8121C8.02159 81.8121 5.50195 84.3318 5.50195 87.4399C5.50195 90.548 8.02159 93.0677 11.1297 93.0677Z" fill="url(#paint1_linear_1160_67)"/>
<path d="M112.43 47.273C115.538 47.273 118.057 44.7533 118.057 41.6452C118.057 38.5371 115.538 36.0175 112.43 36.0175C109.321 36.0175 106.802 38.5371 106.802 41.6452C106.802 44.7533 109.321 47.273 112.43 47.273Z" fill="url(#paint2_linear_1160_67)"/>
<defs>
<linearGradient id="paint0_linear_1160_67" x1="120.649" y1="0.546344" x2="-2.36966" y2="84.6134" gradientUnits="userSpaceOnUse">
<stop stop-color="#6A67FF"/>
<stop offset="0.550768" stop-color="#221FB5"/>
<stop offset="1" stop-color="#020060" stop-opacity="0.44"/>
</linearGradient>
<linearGradient id="paint1_linear_1160_67" x1="17.883" y1="81.8121" x2="6.6275" y2="91.5671" gradientUnits="userSpaceOnUse">
<stop stop-color="#00F0DC"/>
<stop offset="0.504192" stop-color="#5EFFF2"/>
<stop offset="1" stop-color="#007F75"/>
</linearGradient>
<linearGradient id="paint2_linear_1160_67" x1="119.183" y1="36.0175" x2="107.927" y2="45.7722" gradientUnits="userSpaceOnUse">
<stop stop-color="#00F0DC"/>
<stop offset="0.504192" stop-color="#5EFFF2"/>
<stop offset="1" stop-color="#007F75"/>
</linearGradient>
</defs>
</svg>
