<svg width="1280" height="832" viewBox="0 0 1280 832" fill="none" xmlns="http://www.w3.org/2000/svg">
<rect width="1280" height="832" fill="#001B34"/>
<rect x="725.5" y="354.5" width="449" height="49" rx="9.5" stroke="white"/>
<rect x="725" y="429" width="450" height="50" rx="10" fill="#D9D9D9"/>
<path d="M742.381 379.438L741.301 386H739.625L741.443 375.091H743.062L742.778 376.795H742.92C743.261 376.241 743.723 375.796 744.305 375.46C744.888 375.119 745.591 374.949 746.415 374.949C747.144 374.949 747.759 375.1 748.261 375.403C748.768 375.702 749.125 376.156 749.334 376.767C749.547 377.373 749.578 378.14 749.426 379.068L748.261 386H746.585L747.722 379.182C747.864 378.33 747.752 377.662 747.388 377.179C747.028 376.696 746.457 376.455 745.676 376.455C745.136 376.455 744.637 376.571 744.178 376.803C743.723 377.035 743.337 377.373 743.02 377.818C742.707 378.263 742.494 378.803 742.381 379.438ZM758.938 381.54L760.017 375.091H761.694L759.875 386H758.199L758.512 384.153H758.398C758.057 384.707 757.581 385.179 756.971 385.567C756.36 385.95 755.642 386.142 754.819 386.142C754.137 386.142 753.554 385.993 753.071 385.695C752.593 385.392 752.252 384.937 752.049 384.331C751.85 383.72 751.826 382.951 751.978 382.023L753.142 375.091H754.819L753.682 381.909C753.554 382.705 753.675 383.339 754.044 383.812C754.414 384.286 754.946 384.523 755.642 384.523C756.059 384.523 756.499 384.416 756.963 384.203C757.432 383.99 757.849 383.663 758.213 383.223C758.583 382.783 758.824 382.222 758.938 381.54ZM762.945 386L764.763 375.091H766.383L766.099 376.795H766.241C766.567 376.213 767.01 375.761 767.569 375.439C768.132 375.112 768.769 374.949 769.479 374.949C770.19 374.949 770.76 375.112 771.191 375.439C771.622 375.761 771.923 376.213 772.093 376.795H772.207C772.576 376.227 773.068 375.777 773.684 375.446C774.304 375.115 775.005 374.949 775.786 374.949C776.752 374.949 777.496 375.254 778.016 375.865C778.542 376.476 778.698 377.42 778.485 378.699L777.263 386H775.587L776.809 378.699C776.937 377.889 776.809 377.314 776.425 376.973C776.047 376.627 775.559 376.455 774.962 376.455C774.195 376.455 773.563 376.684 773.066 377.143C772.569 377.603 772.263 378.187 772.15 378.898L770.957 386H769.252L770.502 378.528C770.602 377.903 770.483 377.402 770.147 377.023C769.811 376.644 769.323 376.455 768.684 376.455C768.248 376.455 767.822 376.573 767.406 376.81C766.989 377.042 766.631 377.364 766.333 377.776C766.035 378.183 765.843 378.652 765.758 379.182L764.621 386H762.945ZM784.874 386.227C783.827 386.227 782.963 385.995 782.281 385.531C781.599 385.062 781.124 384.409 780.854 383.571C780.584 382.728 780.541 381.748 780.726 380.631C780.911 379.513 781.277 378.528 781.827 377.676C782.376 376.819 783.06 376.152 783.879 375.673C784.698 375.19 785.598 374.949 786.578 374.949C787.146 374.949 787.693 375.044 788.219 375.233C788.744 375.422 789.199 375.73 789.582 376.156C789.966 376.578 790.233 377.136 790.385 377.832C790.536 378.528 790.527 379.385 790.357 380.403L790.243 381.114H781.834L782.061 379.665H788.766C788.875 379.049 788.846 378.5 788.68 378.017C788.519 377.534 788.238 377.153 787.835 376.874C787.438 376.594 786.933 376.455 786.322 376.455C785.693 376.455 785.106 376.625 784.561 376.966C784.017 377.302 783.562 377.728 783.197 378.244C782.833 378.756 782.606 379.277 782.516 379.807L782.317 381.057C782.175 381.961 782.196 382.681 782.381 383.216C782.57 383.751 782.899 384.137 783.368 384.374C783.837 384.606 784.424 384.722 785.129 384.722C785.579 384.722 785.993 384.66 786.372 384.537C786.751 384.409 787.089 384.22 787.388 383.969C787.686 383.713 787.937 383.396 788.141 383.017L789.675 383.472C789.414 384.021 789.047 384.504 788.574 384.92C788.105 385.332 787.556 385.654 786.926 385.886C786.301 386.114 785.617 386.227 784.874 386.227ZM792.008 386L793.826 375.091H795.445L795.161 376.739H795.275C795.559 376.199 795.992 375.761 796.575 375.425C797.157 375.089 797.775 374.92 798.428 374.92C798.556 374.92 798.71 374.923 798.89 374.928C799.07 374.928 799.21 374.935 799.309 374.949L799.025 376.653C798.968 376.639 798.84 376.618 798.641 376.589C798.442 376.556 798.229 376.54 798.002 376.54C797.472 376.54 796.982 376.651 796.532 376.874C796.082 377.091 795.706 377.394 795.403 377.783C795.1 378.166 794.906 378.604 794.82 379.097L793.684 386H792.008ZM803.659 386.227C802.655 386.227 801.815 385.988 801.138 385.51C800.461 385.032 799.982 384.362 799.703 383.5C799.429 382.638 799.384 381.634 799.568 380.489C799.748 379.371 800.106 378.398 800.641 377.57C801.18 376.736 801.85 376.092 802.651 375.638C803.455 375.179 804.341 374.949 805.307 374.949C806.311 374.949 807.149 375.19 807.821 375.673C808.498 376.152 808.976 376.824 809.256 377.69C809.535 378.552 809.582 379.561 809.398 380.716C809.218 381.824 808.856 382.792 808.311 383.621C807.771 384.445 807.101 385.086 806.301 385.545C805.506 386 804.625 386.227 803.659 386.227ZM803.688 384.722C804.455 384.722 805.12 384.525 805.683 384.132C806.251 383.739 806.711 383.221 807.061 382.577C807.416 381.933 807.655 381.237 807.778 380.489C807.892 379.778 807.887 379.118 807.764 378.507C807.641 377.892 807.378 377.397 806.976 377.023C806.573 376.644 806.008 376.455 805.278 376.455C804.511 376.455 803.841 376.653 803.268 377.051C802.7 377.449 802.241 377.972 801.891 378.621C801.54 379.269 801.306 379.968 801.188 380.716C801.074 381.426 801.076 382.087 801.195 382.697C801.318 383.304 801.58 383.794 801.983 384.168C802.39 384.537 802.958 384.722 803.688 384.722ZM820.82 386.227C819.906 386.227 819.139 385.998 818.519 385.538C817.899 385.074 817.461 384.421 817.205 383.578C816.954 382.731 816.923 381.729 817.113 380.574C817.307 379.428 817.669 378.434 818.199 377.591C818.734 376.748 819.39 376.097 820.167 375.638C820.943 375.179 821.791 374.949 822.709 374.949C823.419 374.949 823.962 375.067 824.336 375.304C824.714 375.536 824.989 375.801 825.159 376.099C825.33 376.393 825.46 376.634 825.55 376.824H825.692L826.587 371.455H828.263L825.848 386H824.229L824.513 384.324H824.314C824.158 384.523 823.94 384.774 823.661 385.077C823.382 385.375 823.012 385.643 822.553 385.879C822.098 386.111 821.521 386.227 820.82 386.227ZM821.232 384.722C821.904 384.722 822.506 384.546 823.036 384.196C823.571 383.841 824.016 383.351 824.371 382.726C824.726 382.096 824.972 381.369 825.11 380.545C825.247 379.731 825.242 379.018 825.096 378.408C824.949 377.792 824.667 377.314 824.25 376.973C823.834 376.627 823.282 376.455 822.596 376.455C821.89 376.455 821.277 376.637 820.756 377.001C820.235 377.361 819.811 377.851 819.485 378.472C819.158 379.087 818.931 379.778 818.803 380.545C818.675 381.322 818.673 382.027 818.796 382.662C818.919 383.292 819.179 383.794 819.577 384.168C819.98 384.537 820.531 384.722 821.232 384.722ZM833.682 386.227C832.636 386.227 831.772 385.995 831.09 385.531C830.408 385.062 829.932 384.409 829.662 383.571C829.392 382.728 829.35 381.748 829.534 380.631C829.719 379.513 830.086 378.528 830.635 377.676C831.185 376.819 831.869 376.152 832.688 375.673C833.507 375.19 834.407 374.949 835.387 374.949C835.955 374.949 836.502 375.044 837.027 375.233C837.553 375.422 838.007 375.73 838.391 376.156C838.775 376.578 839.042 377.136 839.194 377.832C839.345 378.528 839.336 379.385 839.165 380.403L839.051 381.114H830.642L830.87 379.665H837.574C837.683 379.049 837.655 378.5 837.489 378.017C837.328 377.534 837.046 377.153 836.644 376.874C836.246 376.594 835.742 376.455 835.131 376.455C834.501 376.455 833.914 376.625 833.37 376.966C832.825 377.302 832.371 377.728 832.006 378.244C831.641 378.756 831.414 379.277 831.324 379.807L831.125 381.057C830.983 381.961 831.005 382.681 831.189 383.216C831.379 383.751 831.708 384.137 832.176 384.374C832.645 384.606 833.232 384.722 833.938 384.722C834.388 384.722 834.802 384.66 835.181 384.537C835.56 384.409 835.898 384.22 836.196 383.969C836.495 383.713 836.746 383.396 836.949 383.017L838.483 383.472C838.223 384.021 837.856 384.504 837.382 384.92C836.914 385.332 836.364 385.654 835.735 385.886C835.11 386.114 834.426 386.227 833.682 386.227ZM846.441 386L848.26 375.091H849.879L849.595 376.739H849.708C849.993 376.199 850.426 375.761 851.008 375.425C851.591 375.089 852.208 374.92 852.862 374.92C852.99 374.92 853.144 374.923 853.324 374.928C853.503 374.928 853.643 374.935 853.743 374.949L853.458 376.653C853.402 376.639 853.274 376.618 853.075 376.589C852.876 376.556 852.663 376.54 852.436 376.54C851.905 376.54 851.415 376.651 850.966 376.874C850.516 377.091 850.139 377.394 849.836 377.783C849.533 378.166 849.339 378.604 849.254 379.097L848.118 386H846.441ZM858.135 386.227C857.089 386.227 856.225 385.995 855.543 385.531C854.861 385.062 854.385 384.409 854.115 383.571C853.846 382.728 853.803 381.748 853.988 380.631C854.172 379.513 854.539 378.528 855.088 377.676C855.638 376.819 856.322 376.152 857.141 375.673C857.96 375.19 858.86 374.949 859.84 374.949C860.408 374.949 860.955 375.044 861.48 375.233C862.006 375.422 862.461 375.73 862.844 376.156C863.228 376.578 863.495 377.136 863.647 377.832C863.798 378.528 863.789 379.385 863.618 380.403L863.505 381.114H855.096L855.323 379.665H862.027C862.136 379.049 862.108 378.5 861.942 378.017C861.781 377.534 861.499 377.153 861.097 376.874C860.699 376.594 860.195 376.455 859.584 376.455C858.954 376.455 858.367 376.625 857.823 376.966C857.278 377.302 856.824 377.728 856.459 378.244C856.095 378.756 855.867 379.277 855.777 379.807L855.578 381.057C855.436 381.961 855.458 382.681 855.642 383.216C855.832 383.751 856.161 384.137 856.63 384.374C857.098 384.606 857.685 384.722 858.391 384.722C858.841 384.722 859.255 384.66 859.634 384.537C860.013 384.409 860.351 384.22 860.65 383.969C860.948 383.713 861.199 383.396 861.402 383.017L862.936 383.472C862.676 384.021 862.309 384.504 861.836 384.92C861.367 385.332 860.818 385.654 860.188 385.886C859.563 386.114 858.879 386.227 858.135 386.227ZM868.991 390.318C868.177 390.318 867.495 390.214 866.946 390.006C866.396 389.802 865.956 389.532 865.625 389.196C865.293 388.865 865.042 388.509 864.872 388.131L866.377 387.193C866.491 387.392 866.638 387.619 866.818 387.875C866.998 388.135 867.27 388.36 867.635 388.55C868.004 388.744 868.522 388.841 869.19 388.841C870.066 388.841 870.833 388.628 871.491 388.202C872.149 387.776 872.556 387.108 872.713 386.199L873.054 383.983H872.912C872.76 384.182 872.549 384.428 872.279 384.722C872.01 385.01 871.647 385.268 871.193 385.496C870.738 385.718 870.156 385.83 869.446 385.83C868.56 385.83 867.803 385.621 867.173 385.205C866.543 384.788 866.091 384.182 865.816 383.386C865.547 382.591 865.506 381.625 865.696 380.489C865.88 379.371 866.235 378.398 866.761 377.57C867.291 376.736 867.945 376.092 868.721 375.638C869.498 375.179 870.345 374.949 871.264 374.949C871.974 374.949 872.519 375.067 872.897 375.304C873.281 375.536 873.56 375.801 873.735 376.099C873.911 376.393 874.043 376.634 874.133 376.824H874.304L874.588 375.091H876.207L874.36 386.312C874.204 387.25 873.866 388.012 873.345 388.599C872.824 389.191 872.185 389.625 871.427 389.899C870.67 390.179 869.858 390.318 868.991 390.318ZM869.872 384.324C870.539 384.324 871.134 384.17 871.654 383.862C872.18 383.554 872.616 383.112 872.961 382.534C873.307 381.956 873.546 381.265 873.679 380.46C873.811 379.674 873.802 378.981 873.65 378.379C873.499 377.778 873.212 377.307 872.791 376.966C872.374 376.625 871.827 376.455 871.15 376.455C870.435 376.455 869.817 376.634 869.297 376.994C868.78 377.354 868.361 377.837 868.039 378.443C867.717 379.049 867.495 379.722 867.372 380.46C867.249 381.218 867.253 381.888 867.386 382.47C867.519 383.048 867.788 383.502 868.196 383.834C868.608 384.161 869.166 384.324 869.872 384.324ZM877.457 386L879.275 375.091H880.951L879.133 386H877.457ZM880.625 373.244C880.298 373.244 880.016 373.133 879.779 372.911C879.547 372.688 879.431 372.42 879.431 372.108C879.431 371.795 879.547 371.528 879.779 371.305C880.016 371.083 880.298 370.972 880.625 370.972C880.951 370.972 881.231 371.083 881.463 371.305C881.699 371.528 881.818 371.795 881.818 372.108C881.818 372.42 881.699 372.688 881.463 372.911C881.231 373.133 880.951 373.244 880.625 373.244ZM891.351 377.534L889.76 377.96C889.703 377.705 889.604 377.458 889.462 377.222C889.324 376.98 889.111 376.784 888.822 376.632C888.538 376.476 888.15 376.398 887.658 376.398C886.99 376.398 886.41 376.552 885.918 376.859C885.425 377.162 885.143 377.548 885.072 378.017C885.001 378.429 885.096 378.758 885.357 379.004C885.617 379.25 886.053 379.452 886.663 379.608L888.226 380.006C889.163 380.247 889.831 380.609 890.229 381.092C890.631 381.571 890.768 382.193 890.641 382.96C890.536 383.585 890.264 384.144 889.824 384.636C889.384 385.129 888.82 385.517 888.134 385.801C887.447 386.085 886.682 386.227 885.839 386.227C884.717 386.227 883.832 385.986 883.183 385.503C882.535 385.015 882.189 384.31 882.146 383.386L883.822 382.989C883.865 383.571 884.073 384.011 884.447 384.31C884.826 384.603 885.357 384.75 886.038 384.75C886.82 384.75 887.471 384.584 887.991 384.253C888.512 383.917 888.808 383.514 888.879 383.045C888.95 382.662 888.875 382.342 888.652 382.087C888.434 381.831 888.055 381.639 887.516 381.511L885.783 381.085C884.817 380.844 884.14 380.474 883.751 379.977C883.368 379.48 883.24 378.855 883.368 378.102C883.472 377.487 883.737 376.942 884.163 376.469C884.594 375.995 885.134 375.624 885.783 375.354C886.436 375.084 887.146 374.949 887.913 374.949C888.993 374.949 889.8 375.186 890.335 375.659C890.87 376.128 891.209 376.753 891.351 377.534ZM899.215 375.091L898.988 376.511H893.334L893.561 375.091H899.215ZM895.635 372.477H897.311L895.578 382.875C895.503 383.348 895.515 383.704 895.614 383.94C895.718 384.172 895.874 384.329 896.083 384.409C896.296 384.485 896.525 384.523 896.772 384.523C896.956 384.523 897.108 384.513 897.226 384.494C897.345 384.471 897.439 384.452 897.51 384.438L897.624 385.943C897.496 385.986 897.323 386.028 897.105 386.071C896.892 386.118 896.63 386.142 896.317 386.142C895.844 386.142 895.399 386.04 894.982 385.837C894.565 385.633 894.246 385.323 894.023 384.906C893.801 384.49 893.741 383.964 893.846 383.33L895.635 372.477ZM899.918 386L901.736 375.091H903.355L903.071 376.739H903.185C903.469 376.199 903.902 375.761 904.485 375.425C905.067 375.089 905.685 374.92 906.338 374.92C906.466 374.92 906.62 374.923 906.8 374.928C906.98 374.928 907.12 374.935 907.219 374.949L906.935 376.653C906.878 376.639 906.75 376.618 906.551 376.589C906.353 376.556 906.14 376.54 905.912 376.54C905.382 376.54 904.892 376.651 904.442 376.874C903.992 377.091 903.616 377.394 903.313 377.783C903.01 378.166 902.816 378.604 902.73 379.097L901.594 386H899.918ZM911.569 386.227C910.565 386.227 909.725 385.988 909.048 385.51C908.371 385.032 907.893 384.362 907.613 383.5C907.339 382.638 907.294 381.634 907.478 380.489C907.658 379.371 908.016 378.398 908.551 377.57C909.091 376.736 909.761 376.092 910.561 375.638C911.366 375.179 912.251 374.949 913.217 374.949C914.221 374.949 915.059 375.19 915.731 375.673C916.408 376.152 916.886 376.824 917.166 377.69C917.445 378.552 917.493 379.561 917.308 380.716C917.128 381.824 916.766 382.792 916.221 383.621C915.681 384.445 915.011 385.086 914.211 385.545C913.416 386 912.535 386.227 911.569 386.227ZM911.598 384.722C912.365 384.722 913.03 384.525 913.593 384.132C914.162 383.739 914.621 383.221 914.971 382.577C915.326 381.933 915.565 381.237 915.689 380.489C915.802 379.778 915.797 379.118 915.674 378.507C915.551 377.892 915.288 377.397 914.886 377.023C914.484 376.644 913.918 376.455 913.189 376.455C912.422 376.455 911.752 376.653 911.179 377.051C910.61 377.449 910.151 377.972 909.801 378.621C909.45 379.269 909.216 379.968 909.098 380.716C908.984 381.426 908.986 382.087 909.105 382.697C909.228 383.304 909.491 383.794 909.893 384.168C910.3 384.537 910.868 384.722 911.598 384.722Z" fill="#00F0DC"/>
<path d="M926.233 464.227C925.187 464.227 924.322 463.995 923.641 463.531C922.959 463.062 922.483 462.409 922.213 461.571C921.943 460.728 921.901 459.748 922.085 458.631C922.27 457.513 922.637 456.528 923.186 455.676C923.735 454.819 924.42 454.152 925.239 453.673C926.058 453.19 926.957 452.949 927.938 452.949C928.506 452.949 929.053 453.044 929.578 453.233C930.104 453.422 930.558 453.73 930.942 454.156C931.325 454.578 931.593 455.136 931.744 455.832C931.896 456.528 931.886 457.385 931.716 458.403L931.602 459.114H923.193L923.42 457.665H930.125C930.234 457.049 930.205 456.5 930.04 456.017C929.879 455.534 929.597 455.153 929.195 454.874C928.797 454.594 928.293 454.455 927.682 454.455C927.052 454.455 926.465 454.625 925.92 454.966C925.376 455.302 924.921 455.728 924.557 456.244C924.192 456.756 923.965 457.277 923.875 457.807L923.676 459.057C923.534 459.961 923.555 460.681 923.74 461.216C923.929 461.751 924.259 462.137 924.727 462.374C925.196 462.606 925.783 462.722 926.489 462.722C926.938 462.722 927.353 462.66 927.732 462.537C928.11 462.409 928.449 462.22 928.747 461.969C929.045 461.713 929.296 461.396 929.5 461.017L931.034 461.472C930.774 462.021 930.407 462.504 929.933 462.92C929.464 463.332 928.915 463.654 928.286 463.886C927.661 464.114 926.976 464.227 926.233 464.227ZM936.123 457.438L935.043 464H933.367L935.185 453.091H936.805L936.521 454.795H936.663C937.004 454.241 937.465 453.796 938.048 453.46C938.63 453.119 939.333 452.949 940.157 452.949C940.886 452.949 941.502 453.1 942.004 453.403C942.51 453.702 942.868 454.156 943.076 454.767C943.289 455.373 943.32 456.14 943.168 457.068L942.004 464H940.327L941.464 457.182C941.606 456.33 941.495 455.662 941.13 455.179C940.77 454.696 940.2 454.455 939.418 454.455C938.879 454.455 938.379 454.571 937.92 454.803C937.465 455.035 937.079 455.373 936.762 455.818C936.45 456.263 936.237 456.803 936.123 457.438ZM951.629 453.091L951.402 454.511H945.748L945.975 453.091H951.629ZM948.049 450.477H949.725L947.993 460.875C947.917 461.348 947.929 461.704 948.028 461.94C948.132 462.172 948.288 462.329 948.497 462.409C948.71 462.485 948.94 462.523 949.186 462.523C949.37 462.523 949.522 462.513 949.64 462.494C949.759 462.471 949.853 462.452 949.924 462.438L950.038 463.943C949.91 463.986 949.737 464.028 949.52 464.071C949.306 464.118 949.044 464.142 948.731 464.142C948.258 464.142 947.813 464.04 947.396 463.837C946.979 463.633 946.66 463.323 946.437 462.906C946.215 462.49 946.155 461.964 946.26 461.33L948.049 450.477ZM952.332 464L954.15 453.091H955.77L955.485 454.739H955.599C955.883 454.199 956.316 453.761 956.899 453.425C957.481 453.089 958.099 452.92 958.752 452.92C958.88 452.92 959.034 452.923 959.214 452.928C959.394 452.928 959.534 452.935 959.633 452.949L959.349 454.653C959.292 454.639 959.164 454.618 958.966 454.589C958.767 454.556 958.554 454.54 958.326 454.54C957.796 454.54 957.306 454.651 956.856 454.874C956.406 455.091 956.03 455.394 955.727 455.783C955.424 456.166 955.23 456.604 955.145 457.097L954.008 464H952.332ZM962.994 464.256C962.303 464.256 961.697 464.125 961.176 463.865C960.655 463.6 960.269 463.219 960.018 462.722C959.768 462.22 959.699 461.614 959.812 460.903C959.921 460.278 960.132 459.772 960.445 459.384C960.757 458.991 961.136 458.683 961.581 458.46C962.031 458.233 962.514 458.065 963.03 457.956C963.551 457.842 964.069 457.755 964.585 457.693C965.258 457.608 965.804 457.542 966.226 457.494C966.647 457.447 966.964 457.369 967.178 457.26C967.391 457.151 967.521 456.964 967.568 456.699V456.642C967.682 455.946 967.589 455.404 967.291 455.016C966.993 454.623 966.46 454.426 965.693 454.426C964.898 454.426 964.232 454.601 963.697 454.952C963.162 455.302 962.767 455.676 962.511 456.074L961.034 455.506C961.422 454.843 961.886 454.327 962.426 453.957C962.966 453.583 963.532 453.323 964.124 453.176C964.715 453.025 965.286 452.949 965.835 452.949C966.186 452.949 966.581 452.991 967.021 453.077C967.462 453.157 967.874 453.325 968.257 453.581C968.645 453.837 968.937 454.223 969.131 454.739C969.33 455.255 969.358 455.946 969.216 456.812L968.023 464H966.347L966.602 462.523H966.517C966.366 462.759 966.134 463.013 965.821 463.283C965.513 463.553 965.123 463.782 964.649 463.972C964.18 464.161 963.629 464.256 962.994 464.256ZM963.477 462.75C964.14 462.75 964.72 462.62 965.217 462.359C965.719 462.099 966.122 461.763 966.425 461.351C966.732 460.939 966.924 460.506 967 460.051L967.256 458.517C967.17 458.602 967.002 458.68 966.751 458.751C966.5 458.818 966.216 458.877 965.899 458.929C965.587 458.976 965.281 459.019 964.983 459.057C964.689 459.09 964.453 459.118 964.273 459.142C963.828 459.199 963.404 459.291 963.001 459.419C962.604 459.542 962.268 459.729 961.993 459.98C961.723 460.226 961.555 460.562 961.489 460.989C961.389 461.571 961.529 462.011 961.908 462.31C962.286 462.603 962.81 462.75 963.477 462.75ZM971.082 464L972.9 453.091H974.52L974.235 454.739H974.349C974.633 454.199 975.066 453.761 975.649 453.425C976.231 453.089 976.849 452.92 977.502 452.92C977.63 452.92 977.784 452.923 977.964 452.928C978.144 452.928 978.284 452.935 978.383 452.949L978.099 454.653C978.042 454.639 977.914 454.618 977.716 454.589C977.517 454.556 977.304 454.54 977.076 454.54C976.546 454.54 976.056 454.651 975.606 454.874C975.156 455.091 974.78 455.394 974.477 455.783C974.174 456.166 973.98 456.604 973.895 457.097L972.758 464H971.082Z" fill="black"/>
<path d="M314.394 444.65C313.746 445.01 313.152 445.136 312.611 445.028C312.107 444.92 311.657 444.578 311.261 444.002L293.216 415.692H271.821V442.273C271.821 443.785 271.065 444.542 269.552 444.542C268.04 444.542 267.283 443.785 267.283 442.273V378.413C267.283 376.901 268.04 376.144 269.552 376.144H294.837C300.852 376.144 305.372 377.675 308.397 380.737C311.459 383.762 312.99 388.282 312.99 394.297V397.539C312.99 402.869 311.765 407.047 309.316 410.073C306.903 413.062 303.301 414.863 298.511 415.476L315.043 441.516C315.907 442.849 315.691 443.894 314.394 444.65ZM271.821 411.153H294.837C299.555 411.153 302.995 410.055 305.156 407.858C307.353 405.661 308.451 402.221 308.451 397.539V394.297C308.451 389.579 307.353 386.139 305.156 383.978C302.995 381.781 299.555 380.683 294.837 380.683H271.821V411.153Z" fill="white"/>
<path d="M362.821 444.542C361.308 444.542 360.552 443.785 360.552 442.273V410.343V378.413C360.552 376.901 361.308 376.144 362.821 376.144H391.023C396.173 376.144 400.045 377.423 402.638 379.98C405.268 382.537 406.582 386.337 406.582 391.38V394.297C406.582 400.24 404.673 404.31 400.856 406.507C407.339 408.92 410.58 414.467 410.58 423.147V426.497C410.58 432.44 409.05 436.942 405.988 440.004C402.963 443.029 398.442 444.542 392.427 444.542H362.821ZM365.09 440.004H392.427C397.182 440.004 400.639 438.923 402.8 436.762C404.962 434.601 406.042 431.179 406.042 426.497V423.147C406.042 418.429 404.962 415.025 402.8 412.936C400.639 410.811 397.182 409.749 392.427 409.749H365.09V440.004ZM365.09 405.211H391.455C394.985 405.211 397.632 404.364 399.397 402.671C401.162 400.978 402.044 398.187 402.044 394.297V391.38C402.044 387.634 401.162 384.915 399.397 383.222C397.668 381.529 394.877 380.683 391.023 380.683H365.09V405.211Z" fill="white"/>
<path d="M463.324 444.542C462.675 444.542 462.135 444.326 461.703 443.894C461.271 443.461 461.055 442.921 461.055 442.273V378.305C461.055 377.657 461.271 377.117 461.703 376.685C462.135 376.252 462.675 376.036 463.324 376.036C463.972 376.036 464.512 376.252 464.945 376.685C465.377 377.117 465.593 377.657 465.593 378.305V442.273C465.593 442.921 465.377 443.461 464.945 443.894C464.512 444.326 463.972 444.542 463.324 444.542Z" fill="white"/>
<path d="M548.798 444.65C548.149 444.65 547.609 444.434 547.177 444.002C546.745 443.569 546.528 443.029 546.528 442.381V380.574H522.865C522.216 380.574 521.676 380.358 521.244 379.926C520.812 379.494 520.596 378.954 520.596 378.305C520.596 377.657 520.812 377.117 521.244 376.685C521.676 376.252 522.216 376.036 522.865 376.036H574.73C575.379 376.036 575.919 376.252 576.351 376.685C576.783 377.117 576.999 377.657 576.999 378.305C576.999 378.954 576.783 379.494 576.351 379.926C575.919 380.358 575.379 380.574 574.73 380.574H551.067V442.381C551.067 443.029 550.851 443.569 550.418 444.002C549.986 444.434 549.446 444.65 548.798 444.65Z" fill="white"/>
<path d="M170.517 454.097C196.777 454.097 218.065 432.808 218.065 406.548C218.065 380.288 196.777 359 170.517 359C144.257 359 122.969 380.288 122.969 406.548C122.969 432.808 144.257 454.097 170.517 454.097Z" fill="url(#paint0_linear_1158_6)"/>
<path d="M203.858 368.435C210.488 366.729 225.157 364.614 230.793 369.8C234.246 372.302 237.92 380.513 224.991 393.342C217.947 402.668 192.504 425.278 147.088 441.109C138.524 443.953 119.325 448.206 111.037 442.474C107.308 439.403 103.993 429.441 120.568 414.155" stroke="white" stroke-linecap="round"/>
<path d="M118.13 452.068C121.238 452.068 123.757 449.548 123.757 446.44C123.757 443.332 121.238 440.812 118.13 440.812C115.022 440.812 112.502 443.332 112.502 446.44C112.502 449.548 115.022 452.068 118.13 452.068Z" fill="url(#paint1_linear_1158_6)"/>
<path d="M219.43 406.273C222.538 406.273 225.057 403.753 225.057 400.645C225.057 397.537 222.538 395.017 219.43 395.017C216.321 395.017 213.802 397.537 213.802 400.645C213.802 403.753 216.321 406.273 219.43 406.273Z" fill="url(#paint2_linear_1158_6)"/>
<defs>
<linearGradient id="paint0_linear_1158_6" x1="227.649" y1="359.546" x2="104.63" y2="443.613" gradientUnits="userSpaceOnUse">
<stop stop-color="#6A67FF"/>
<stop offset="0.550768" stop-color="#221FB5"/>
<stop offset="1" stop-color="#020060" stop-opacity="0.44"/>
</linearGradient>
<linearGradient id="paint1_linear_1158_6" x1="124.883" y1="440.812" x2="113.628" y2="450.567" gradientUnits="userSpaceOnUse">
<stop stop-color="#00F0DC"/>
<stop offset="0.504192" stop-color="#5EFFF2"/>
<stop offset="1" stop-color="#007F75"/>
</linearGradient>
<linearGradient id="paint2_linear_1158_6" x1="226.183" y1="395.017" x2="214.927" y2="404.772" gradientUnits="userSpaceOnUse">
<stop stop-color="#00F0DC"/>
<stop offset="0.504192" stop-color="#5EFFF2"/>
<stop offset="1" stop-color="#007F75"/>
</linearGradient>
</defs>
</svg>
